# xmcd CD database file generated by Grip 2.2
# 
# Track frame offsets:
#       150
#       26367
#       44085
#       70233
#       86136
#       106204
#       128629
#       143943
#       165192
#       187381
#       208315
#       231165
#       264397
# 
# Disc length: 3527 seconds
# 
# Revision: 3
# Processed by: cddbd v1.4b41PL1 Copyright (c) Steve Scherf et al.
# Submitted via: Grip 2.2
# 
DISCID=bd0dc50d
DTITLE=Colin Hay - Transcendental Highway
DYEAR=1900
DGENRE=
TTITLE0=Trancendental Highway
TTITLE1=Don't Believe You Anymore
TTITLE2=My Brilliant Feat
TTITLE3=Goodbye My Red Rose
TTITLE4=If I Go
TTITLE5=I'm Doing Fine
TTITLE6=Wash It All Away
TTITLE7=Cactus
TTITLE8=Death Row Conversation
TTITLE9=I'll Leave The Light On
TTITLE10=Freedom Calling
TTITLE11=I Just Don't Think I'll Ever Get Over You
TTITLE12=Bonus Track
EXTD=
EXTT0=
EXTT1=
EXTT2=
EXTT3=
EXTT4=
EXTT5=
EXTT6=
EXTT7=
EXTT8=
EXTT9=
EXTT10=
EXTT11=
EXTT12=
PLAYORDER=
